<svg xmlns="http://www.w3.org/2000/svg" viewBox="0 0 640 360" role="img" aria-labelledby="t"><title id="t">ISO 8583 payment processing</title><defs><linearGradient id="b" x1="0" x2="1"><stop stop-color="#020617"/><stop offset="1" stop-color="#071a35"/></linearGradient></defs><rect width="640" height="360" rx="26" fill="url(#b)"/><g fill="#0f172a" stroke="#3b82f6" stroke-width="3"><rect x="58" y="112" width="132" height="88" rx="16"/><rect x="254" y="92" width="132" height="128" rx="16"/><rect x="450" y="112" width="132" height="88" rx="16"/></g><g fill="#bfdbfe" font-family="Arial,sans-serif" text-anchor="middle"><text x="124" y="151" font-size="19">TERMINAL</text><text x="320" y="138" font-size="19">ISO 8583</text><text x="320" y="170" font-size="15" fill="#60a5fa">0200 • 0210</text><text x="516" y="151" font-size="19">NETWORK</text></g><g stroke="#60a5fa" stroke-width="4" fill="none"><path d="M190 143h64"/><path d="M386 143h64"/><path d="M450 177h-64"/><path d="M254 177h-64"/></g><g fill="#60a5fa"><path d="M246 136l12 7-12 7z"/><path d="M442 136l12 7-12 7z"/><path d="M394 170l-12 7 12 7z"/><path d="M198 170l-12 7 12 7z"/></g><text x="58" y="306" fill="#60a5fa" font-family="Arial,sans-serif" font-size="16" letter-spacing="3">AUTHORIZATION • RESPONSE • NETWORK FLOWS</text></svg>