<svg xmlns="http://www.w3.org/2000/svg" viewBox="0 0 640 360" role="img" aria-labelledby="t"><title id="t">Stand-in processing pipeline</title><rect width="640" height="360" rx="26" fill="#031027"/><g fill="#0b1730" stroke="#3b82f6" stroke-width="3"><rect x="56" y="112" width="120" height="68" rx="12"/><rect x="208" y="112" width="120" height="68" rx="12"/><rect x="360" y="112" width="120" height="68" rx="12"/><rect x="512" y="112" width="72" height="68" rx="12"/></g><g stroke="#60a5fa" stroke-width="4"><path d="M176 146h32M328 146h32M480 146h32"/></g><g fill="#dbeafe" font-family="Arial,sans-serif" text-anchor="middle"><text x="116" y="140" font-size="17">QUEUE</text><text x="116" y="161" fill="#60a5fa" font-size="12">pending</text><text x="268" y="140" font-size="17">BATCH</text><text x="268" y="161" fill="#60a5fa" font-size="12">process</text><text x="420" y="140" font-size="17">STATUS</text><text x="420" y="161" fill="#60a5fa" font-size="12">track</text><text x="548" y="140" font-size="17">DB</text></g><g fill="#2563eb"><circle cx="116" cy="230" r="9"/><circle cx="190" cy="230" r="9"/><circle cx="264" cy="230" r="9"/><circle cx="338" cy="230" r="9"/><circle cx="412" cy="230" r="9"/></g><path d="M116 230h296" stroke="#1d4ed8" stroke-width="3"/><text x="56" y="309" fill="#60a5fa" font-family="Arial,sans-serif" font-size="16" letter-spacing="3">BATCHING • STATUS TRACKING • PERSISTENCE</text></svg>